<?xml version="1.0" encoding="UTF-8" standalone="no"?>
<!DOCTYPE svg PUBLIC "-//W3C//DTD SVG 1.1//EN" "http://www.w3.org/Graphics/SVG/1.1/DTD/svg11.dtd">
<svg width="100%" height="100%" viewBox="0 0 531 141" version="1.1" xmlns="http://www.w3.org/2000/svg" xml:space="preserve" style="fill-rule:evenodd;clip-rule:evenodd;stroke-linecap:square;stroke-miterlimit:1.5;">
    <g transform="matrix(1,0,0,1,-79.7296,-479.73)">
        <g transform="matrix(1,0,0,0.933333,0,32)">
            <rect x="80" y="480" width="530" height="150" style="fill:none;stroke:white;stroke-width:0.31px;"/>
        </g>
        <g>
            <g>
                <g transform="matrix(1.54457,0,0,1.54457,-1646.84,203.68)">
                    <path d="M1188.62,244.47L1196.76,256.589L1179.95,256.589L1172.33,244.47L1188.62,244.47Z"/>
                </g>
                <g transform="matrix(1.54457,0,0,1.54457,-1656.84,203.68)">
                    <path d="M1161.85,244.47L1154.23,256.589L1137.43,256.589L1145.57,244.47L1161.85,244.47Z"/>
                </g>
                <g transform="matrix(1.54457,0,0,1.54457,-1656.84,203.68)">
                    <path d="M1162.19,204.846L1145.95,204.846L1137.81,192.653L1154.52,192.653L1162.19,204.846Z"/>
                </g>
                <g transform="matrix(1.54457,0,0,1.54457,-1646.84,203.68)">
                    <path d="M1188.23,204.846L1171.99,204.846L1179.67,192.653L1196.37,192.653L1188.23,204.846Z"/>
                </g>
            </g>
            <g transform="matrix(1.54457,0,0,1.54457,-1641.84,203.68)">
                <path d="M1204.45,244.47C1202.95,242.343 1201.76,239.991 1200.84,237.437C1199.39,233.437 1198.67,229.165 1198.67,224.621C1198.67,220.077 1199.39,215.805 1200.84,211.805C1201.74,209.28 1202.92,206.954 1204.4,204.846L1225.6,204.846L1223.97,205.517C1221.89,206.541 1220.13,207.965 1218.69,209.789C1217.25,211.613 1216.18,213.789 1215.48,216.317C1214.77,218.845 1214.42,221.613 1214.42,224.621C1214.42,227.629 1214.77,230.397 1215.48,232.925C1216.18,235.453 1217.25,237.629 1218.69,239.453C1220.13,241.277 1221.89,242.701 1223.97,243.725C1224.57,244.021 1225.2,244.274 1225.87,244.47L1204.45,244.47Z"/>
            </g>
            <g transform="matrix(1.54457,0,0,1.54457,-1644.84,203.68)">
                <path d="M1236.7,244.47C1237.37,244.273 1238,244.02 1238.61,243.725C1240.72,242.701 1242.5,241.277 1243.94,239.453C1245.38,237.629 1246.45,235.453 1247.15,232.925C1247.86,230.397 1248.21,227.629 1248.21,224.621C1248.21,221.613 1247.86,218.845 1247.15,216.317C1246.45,213.789 1245.38,211.613 1243.94,209.789C1242.5,207.965 1240.72,206.541 1238.61,205.517L1236.97,204.846L1258.14,204.846C1259.63,206.954 1260.82,209.28 1261.75,211.805C1263.22,215.805 1263.95,220.077 1263.95,224.621C1263.95,229.165 1263.22,233.437 1261.75,237.437C1260.81,239.99 1259.6,242.342 1258.1,244.47L1236.7,244.47Z"/>
            </g>
            <g transform="matrix(1.54457,0,0,1.54457,-1644.84,203.68)">
                <path d="M1273.46,244.47L1273.46,204.846L1289.2,204.846L1289.2,222.701L1293.04,222.701C1297.27,222.701 1300.56,221.869 1302.93,220.205C1305.3,218.541 1306.48,216.205 1306.48,213.197C1306.48,210.317 1305.36,208.189 1303.12,206.813C1301.3,205.692 1298.88,205.028 1295.87,204.846L1319.96,204.846C1321.1,207.159 1321.65,209.853 1321.65,212.909C1321.65,217.197 1320.45,220.941 1318.05,224.141C1315.65,227.341 1312.31,229.773 1308.02,231.437L1318.91,244.47L1300.05,244.47L1292.08,234.413L1289.2,234.413L1289.2,244.47L1273.46,244.47Z"/>
            </g>
            <g transform="matrix(1.54457,0,0,1.54457,-1644.84,203.68)">
                <path d="M1336.83,244.47C1335.33,242.343 1334.14,239.991 1333.22,237.437C1331.78,233.437 1331.06,229.165 1331.06,224.621C1331.06,220.077 1331.78,215.805 1333.22,211.805C1334.13,209.28 1335.31,206.954 1336.78,204.846L1357.98,204.846L1356.36,205.517C1354.28,206.541 1352.52,207.965 1351.08,209.789C1349.63,211.613 1348.56,213.789 1347.86,216.317C1347.15,218.845 1346.8,221.613 1346.8,224.621C1346.8,227.629 1347.15,230.397 1347.86,232.925C1348.56,235.453 1349.63,237.629 1351.08,239.453C1352.52,241.277 1354.28,242.701 1356.36,243.725C1356.96,244.021 1357.59,244.274 1358.25,244.47L1336.83,244.47Z"/>
            </g>
            <g transform="matrix(1.54457,0,0,1.54457,-1647.84,203.68)">
                <path d="M1369.08,244.47C1369.75,244.273 1370.39,244.02 1371,243.725C1373.11,242.701 1374.88,241.277 1376.32,239.453C1377.76,237.629 1378.84,235.453 1379.54,232.925C1380.24,230.397 1380.6,227.629 1380.6,224.621C1380.6,221.613 1380.24,218.845 1379.54,216.317C1378.84,213.789 1377.76,211.613 1376.32,209.789C1374.88,207.965 1373.11,206.541 1371,205.517L1369.35,204.846L1390.53,204.846C1392.01,206.954 1393.2,209.28 1394.13,211.805C1395.6,215.805 1396.34,220.077 1396.34,224.621C1396.34,229.165 1395.6,233.437 1394.13,237.437C1393.19,239.99 1391.99,242.342 1390.48,244.47L1369.08,244.47Z"/>
            </g>
            <g transform="matrix(1.54457,0,0,1.54457,-1647.84,203.68)">
                <path d="M1427.92,244.47C1428.47,244.282 1428.98,244.046 1429.46,243.773C1431.19,242.781 1432.05,241.165 1432.05,238.925C1432.05,237.325 1431.3,235.869 1429.8,234.557C1428.29,233.245 1425.56,231.853 1421.59,230.381C1415.32,228.013 1410.74,225.309 1407.86,222.269C1404.98,219.229 1403.54,215.341 1403.54,210.605C1403.54,208.516 1403.77,206.595 1404.25,204.846L1422.19,204.846L1421.44,205.181C1420,205.981 1419.28,207.341 1419.28,209.261C1419.28,210.157 1419.41,210.925 1419.67,211.565C1419.92,212.205 1420.39,212.813 1421.06,213.389C1421.73,213.965 1422.67,214.541 1423.89,215.117C1425.11,215.693 1426.64,216.365 1428.5,217.133C1431.19,218.221 1433.71,219.373 1436.08,220.589C1438.45,221.805 1440.5,223.213 1442.23,224.813C1443.95,226.413 1445.32,228.237 1446.31,230.285C1447.3,232.333 1447.8,234.733 1447.8,237.485C1447.8,239.952 1447.37,242.283 1446.48,244.47L1427.92,244.47Z"/>
            </g>
        </g>
    </g>
</svg>
